<?xml version="1.0" encoding="utf-8"?>
<!-- Generator: Adobe Illustrator 17.0.0, SVG Export Plug-In . SVG Version: 6.00 Build 0)  -->
<!DOCTYPE svg PUBLIC "-//W3C//DTD SVG 1.1//EN" "http://www.w3.org/Graphics/SVG/1.1/DTD/svg11.dtd">
<svg version="1.1" id="图层_1" xmlns="http://www.w3.org/2000/svg" xmlns:xlink="http://www.w3.org/1999/xlink" x="0px" y="0px"
	 width="1000px" height="1000px" viewBox="0 0 1000 1000" enable-background="new 0 0 1000 1000" xml:space="preserve">
<path fill="#ffc107" d="M729.219,421.406v9.531c0,22.396-3.724,39.557-11.172,51.484c-7.448,11.927-18.203,17.891-32.266,17.891
	c-14.583,0-25.573-5.963-32.969-17.891c-7.396-11.927-11.094-29.088-11.094-51.484v-9.531c0-22.604,3.646-39.766,10.937-51.484
	c7.292-11.719,18.229-17.578,32.813-17.578c14.063,0,24.87,5.859,32.422,17.578C725.443,381.641,729.219,398.802,729.219,421.406z
	 M785,430.938v-9.219c0-17.396-2.474-33.021-7.422-46.875c-4.948-13.854-11.823-25.625-20.625-35.313
	c-8.802-9.687-19.297-17.135-31.484-22.344c-12.188-5.208-25.521-7.813-40-7.813c-14.688,0-28.125,2.604-40.313,7.813
	c-12.188,5.208-22.656,12.656-31.406,22.344c-8.75,9.688-15.547,21.458-20.391,35.313c-4.844,13.854-7.266,29.479-7.266,46.875
	v9.219c0,17.396,2.448,33.021,7.344,46.875c4.896,13.854,11.745,25.625,20.547,35.313c8.802,9.688,19.297,17.109,31.484,22.266
	c12.188,5.156,25.625,7.734,40.312,7.734c4.583,0,9.167-0.312,13.75-0.937l48.906,39.375l33.906-28.75l-36.719-29.062
	c12.292-9.479,21.927-22.057,28.906-37.734C781.51,470.338,785,451.979,785,430.938z M433.594,370c0-2.813,0.391-5.443,1.172-7.891
	c0.781-2.448,1.953-4.583,3.516-6.406c1.563-1.823,3.516-3.255,5.859-4.297c2.344-1.042,5.078-1.562,8.203-1.562
	c2.708,0,5.13,0.521,7.266,1.562c2.135,1.042,3.958,2.422,5.469,4.141c1.51,1.719,2.656,3.62,3.437,5.703
	c0.781,2.083,1.172,4.219,1.172,6.406c0,1.771-0.13,3.568-0.391,5.391c-0.26,1.823-0.885,3.672-1.875,5.547
	c-0.99,1.875-2.422,3.776-4.297,5.703c-1.875,1.927-4.427,3.932-7.656,6.016l-10,6.25c-3.646-4.792-6.536-9.323-8.672-13.594
	C434.661,378.698,433.594,374.375,433.594,370z M445.781,502.656c-3.333,0-6.51-0.651-9.531-1.953
	c-3.021-1.302-5.677-3.177-7.969-5.625c-2.292-2.448-4.115-5.339-5.469-8.672c-1.354-3.333-2.031-7.031-2.031-11.094
	c0-4.687,0.677-8.984,2.031-12.891c1.354-3.906,3.646-7.838,6.875-11.797l1.406-0.937l40.937,46.562
	C463.698,500.521,454.948,502.656,445.781,502.656z M407.812,420.156l-0.469,0.313c-5.833,4.271-11.146,8.463-15.938,12.578
	c-4.792,4.115-8.932,8.464-12.422,13.047s-6.198,9.557-8.125,14.922c-1.927,5.365-2.891,11.328-2.891,17.891
	c0,9.375,1.719,18.021,5.156,25.938c3.438,7.917,8.359,14.713,14.766,20.391c6.406,5.677,14.219,10.104,23.438,13.281
	c9.219,3.177,19.557,4.766,31.016,4.766s21.745-1.25,30.859-3.75c9.115-2.5,18.047-6.354,26.797-11.562L510.625,540h58.75
	l-34.687-39.844c7.708-10.104,13.177-21.38,16.406-33.828c3.229-12.448,4.844-25.807,4.844-40.078h-44.219
	c0,7.083-0.755,13.776-2.266,20.078c-1.51,6.302-3.62,12.161-6.328,17.578l-35-40.156l13.594-9.531
	c4.375-3.125,8.411-6.51,12.109-10.156c3.698-3.646,6.901-7.578,9.609-11.797c2.708-4.219,4.818-8.698,6.328-13.437
	c1.51-4.74,2.266-9.714,2.266-14.922c0-7.396-1.406-14.401-4.219-21.016c-2.812-6.615-6.823-12.422-12.031-17.422
	s-11.458-8.958-18.75-11.875c-7.292-2.917-15.469-4.375-24.531-4.375c-9.792,0-18.646,1.51-26.562,4.531
	c-7.917,3.021-14.688,7.24-20.313,12.656c-5.625,5.417-9.948,11.901-12.969,19.453c-3.021,7.552-4.531,15.807-4.531,24.766
	c0,8.438,1.745,16.615,5.234,24.531C396.849,403.073,401.667,411.406,407.812,420.156z M344.688,449.375v-42.187H256.25v-52.344
	h97.344V312.5H201.406V540h54.844v-90.625H344.688z M940,820H199.818C177.781,820,160,837.952,160,860.098v19.805
	c0,22.22,17.827,40.098,39.818,40.098H940c-0.077,44.196-35.909,80-80.036,80H140.036C95.833,1000,60,964.115,60,919.856V80.144
	C60,35.882,95.862,0,140.036,0h719.928C904.167,0,940,35.885,940,80.144V820z"/>
</svg>
